PathFileType	4	(X/Y/Z)	D:\TRACE\v60_Jaco2_6-2-23\JustBodyDRS_Motion2_6-platform.trc
DataRate	CameraRate	NumFrames	NumMarkers	Units	OrigDataRate	OrigDataStartFrame	OrigNumFrames
100.00	100.00	      54	5	mm	100.00	5056	      6741
Frame#	Time	Left_Front			Right_Front			Left_Aft			Right_Aft			Post			
		X1	Y1	Z1	X2	Y2	Z2	X3	Y3	Z3	X4	Y4	Z4	X5	Y5	Z5	

5056	50.550	-755.95789	70.95528	-621.19733	813.99396	71.51031	-626.38885	-664.15100	-36.29240	508.92307	778.24243	-38.76092	518.74207	30.90797	1393.66846	-820.86627	
5057	50.560	-756.41626	71.21567	-621.00885	813.52100	71.78094	-626.28516	-664.53583	-36.55494	509.08490	777.87317	-38.81281	518.78168	30.20018	1394.28455	-820.45074	
5058	50.570	-756.97888	71.39959	-621.10095	812.87122	72.09611	-626.18622	-664.98688	-37.22324	509.32846	776.67902	-38.81805	519.02588	29.35160	1394.81580	-820.19513	
5059	50.580	-757.60565	71.54743	-620.99512	812.36896	72.34465	-626.04413	-665.78473	-36.84468	508.91159	776.10217	-39.15619	518.97418	29.14771	1395.27673	-819.73767	
5060	50.590	-758.48804	71.81105	-620.85425	811.85834	72.50680	-626.03339	-666.41150	-37.13589	508.93817	775.98065	-39.66770	518.90002	28.88786	1395.44617	-819.38037	
5061	50.600	-759.04614	71.95650	-620.95593	811.24622	72.68237	-625.83167	-666.95233	-37.14001	508.80151	775.36511	-39.78678	518.92841	27.57970	1395.75342	-818.51556	
5062	50.610	-759.69153	72.25815	-620.85846	810.49017	72.99385	-625.82123	-667.46027	-37.19689	509.04224	774.38831	-39.72297	519.16376	27.35148	1395.93140	-817.92462	
5063	50.620	-760.24548	72.17842	-620.69348	809.93280	73.08750	-625.95392	-668.21771	-37.13641	509.04105	773.79797	-39.50083	519.19672	26.72891	1395.93774	-817.15344	
5064	50.630	-760.74426	72.06998	-620.69812	809.32104	72.98626	-625.91760	-669.07343	-37.14525	509.05331	773.32831	-39.58982	519.17151	25.83315	1395.89478	-816.39038	
5065	50.640	-761.52313	72.07484	-620.64539	808.67944	72.74724	-625.93860	-669.57153	-37.16697	508.98969	772.87860	-39.69289	519.02551	25.13051	1395.79431	-816.09698	
5066	50.650	-762.36462	72.02284	-620.79272	807.76227	72.63345	-625.90967	-670.11407	-37.33895	508.99832	772.01782	-39.62834	519.13971	24.53637	1395.48315	-816.11609	
5067	50.660	-763.00366	72.04364	-621.05951	806.96637	72.56297	-625.91656	-671.04895	-37.25724	508.92865	770.92322	-39.33758	519.45197	23.79544	1395.27698	-816.98749	
5068	50.670	-763.83368	71.89451	-620.87506	806.25385	72.46169	-626.06293	-671.61566	-36.98620	508.97034	770.67712	-39.42324	519.46918	23.40984	1395.15833	-817.68427	
5069	50.680	-764.20398	71.81786	-620.90729	805.83105	72.50249	-626.05511	-672.25653	-36.85267	509.06500	769.68951	-39.16622	519.42303	22.41940	1395.18408	-819.10126	
5070	50.690	-765.27441	71.61438	-620.91260	805.15625	72.29737	-626.06061	-673.34692	-36.66913	508.86377	769.02063	-39.23528	518.99152	21.68804	1394.95154	-820.58484	
5071	50.700	-766.01453	71.29552	-621.00635	804.00323	71.87983	-626.19958	-674.09924	-36.60315	508.72961	768.27271	-39.21351	518.87640	20.79274	1394.97900	-821.25073	
5072	50.710	-766.88208	71.15442	-621.25562	803.14966	71.62206	-626.35327	-674.70361	-36.49017	508.70239	767.57635	-39.10514	518.86346	20.18638	1394.52075	-821.96472	
5073	50.720	-767.49622	71.16051	-621.31848	802.65765	71.48028	-626.24451	-675.87067	-36.13741	508.68674	766.02393	-38.52863	519.20325	19.45040	1394.22522	-822.46643	
5074	50.730	-768.14246	70.88354	-621.47156	801.81641	71.34325	-626.34320	-676.65875	-35.74024	508.79395	765.87640	-38.52132	518.98114	18.56155	1393.82935	-822.49542	
5075	50.740	-769.32678	70.25252	-621.13654	800.98761	71.13537	-626.29169	-677.25922	-35.73709	508.81943	765.04340	-38.21206	518.82068	17.70355	1393.30920	-822.36304	
5076	50.750	-770.03540	69.92781	-621.47180	799.96350	70.62275	-626.68201	-678.00226	-35.61187	508.70447	764.25323	-37.88747	518.79675	16.89804	1392.74585	-822.15228	
5077	50.760	-770.80042	69.37265	-621.80286	799.17822	70.31749	-626.84448	-678.80902	-35.25667	508.67300	763.52924	-37.56710	518.80115	15.90727	1392.07788	-822.56055	
5078	50.770	-771.47589	68.81290	-621.77667	798.42609	69.77200	-626.80933	-679.68024	-34.85452	508.37543	762.40363	-37.18971	519.09869	15.00547	1391.27429	-822.99329	
5079	50.780	-772.66699	68.16523	-621.72443	797.30469	68.97460	-627.11072	-680.57611	-34.45405	508.48090	761.39496	-36.83774	518.25177	13.85659	1390.70825	-824.46545	
5080	50.790	-773.75848	67.73326	-622.28735	796.49908	68.47777	-627.21814	-681.33008	-34.26653	508.43997	760.74713	-36.48984	518.15704	13.16409	1389.80090	-826.11816	
5081	50.800	-774.75153	67.18662	-622.47772	795.62024	67.92313	-627.46783	-682.26422	-33.95042	508.28506	759.47321	-35.85576	517.75385	12.40599	1389.36597	-828.18549	
5082	50.810	-775.48401	66.61324	-622.60278	794.58862	67.29696	-627.67810	-683.14063	-33.44711	508.04221	758.75232	-35.55771	517.48859	11.13447	1388.23352	-830.83588	
5083	50.820	-776.26239	66.15392	-622.69788	793.54089	66.87264	-628.00104	-684.59692	-32.50711	507.99673	757.62469	-35.08284	517.75793	10.44523	1387.85071	-833.23749	
5084	50.830	-777.50348	65.49934	-622.89441	792.89600	66.26220	-627.96112	-685.31128	-32.14620	507.89679	756.68848	-34.50445	517.56073	9.26276	1386.95813	-835.63843	
5085	50.840	-778.44763	64.69743	-623.49878	791.57025	65.29727	-628.42084	-686.42303	-31.16981	507.66263	755.95483	-34.09978	517.42249	8.97501	1386.07068	-837.60492	
5086	50.850	-779.37750	63.84576	-623.27521	790.70923	64.75586	-628.49091	-687.49799	-30.96260	507.70285	755.01007	-33.49299	517.37640	7.89781	1384.95105	-839.03900	
5087	50.860	-780.07874	63.13057	-623.79108	789.72827	63.76322	-628.89899	-688.35651	-30.61757	507.69882	753.51459	-32.98555	517.38770	6.91834	1384.16846	-840.67804	
5088	50.870	-781.51581	62.69249	-624.05170	788.88202	63.32980	-629.03174	-689.84283	-29.47127	507.75339	753.16840	-32.13131	517.09351	5.83774	1382.80151	-841.47961	
5089	50.880	-782.51459	61.96683	-624.29852	787.57727	62.38551	-629.33911	-690.77716	-28.97281	507.69125	751.72961	-31.85674	516.72278	4.52780	1381.82751	-842.52325	
5090	50.890	-783.25409	60.72365	-624.29932	786.66443	61.82615	-629.55084	-691.68011	-28.69134	507.38406	750.75879	-31.05408	516.55957	3.52546	1380.90308	-843.45044	
5091	50.900	-784.35516	59.95455	-624.62830	785.79742	60.92410	-629.72076	-692.68011	-27.92607	507.28323	749.90570	-30.56287	516.39496	2.50733	1379.84387	-844.67767	
5092	50.910	-785.65289	59.26344	-625.17914	784.50452	59.94923	-630.06110	-693.89417	-27.47516	507.07056	748.57513	-29.91809	516.25354	0.96488	1378.40918	-846.33154	
5093	50.920	-786.70837	58.25905	-625.29376	783.64752	58.96536	-630.15594	-694.66656	-26.90403	506.81403	747.67633	-29.28897	516.10345	0.16815	1377.29102	-848.52820	
5094	50.930	-787.29474	57.27821	-625.40894	782.64276	58.30447	-630.61670	-695.64539	-26.14986	506.69507	746.45050	-28.53504	515.94824	-0.67470	1376.30847	-850.96613	
5095	50.940	-788.55212	56.18673	-625.79779	781.49731	57.28703	-630.90448	-696.71802	-25.53826	506.60233	745.73138	-27.93709	515.81268	-1.82293	1374.93628	-854.05463	
5096	50.950	-789.91943	55.60488	-626.06726	780.40698	56.26836	-631.21252	-697.84686	-24.81888	506.20132	744.30322	-27.18122	515.61731	-3.34399	1373.55933	-857.12286	
5097	50.960	-790.84558	54.42637	-626.36548	779.29999	55.10420	-631.40723	-698.99762	-24.06648	506.04877	742.99097	-26.41153	515.45905	-4.43180	1372.32788	-860.55957	
5098	50.970	-791.79700	53.25796	-626.73041	778.15094	54.38010	-631.70874	-700.07465	-23.37991	505.87057	742.42261	-25.63325	515.50476	-5.11096	1370.90894	-863.09888	
5099	50.980	-792.91406	52.10929	-627.20111	777.14966	53.04127	-632.24683	-701.34259	-22.59266	505.49457	741.15594	-24.81715	515.30133	-6.07701	1369.46179	-865.69464	
5100	50.990	-794.27380	51.28070	-627.36115	776.18024	52.16872	-632.45129	-702.26447	-21.77611	505.38278	740.39642	-24.05136	515.17108	-7.11623	1368.15698	-868.00647	
5101	51.000	-795.31616	50.10639	-627.50726	774.80811	50.93561	-632.85126	-703.41705	-20.91794	505.17010	738.95471	-23.21824	514.93018	-8.45538	1366.61829	-870.28912	
5102	51.010	-796.29712	48.85589	-627.96875	773.77515	49.99616	-632.99890	-704.52557	-20.22341	505.05106	737.95776	-22.48143	514.59656	-9.78856	1365.13953	-872.26294	
5103	51.020	-797.40765	47.76862	-628.42584	772.60199	48.87297	-633.57239	-705.76416	-19.24700	504.68796	736.53259	-21.77879	514.39130	-10.85504	1363.46106	-874.10876	
5104	51.030	-798.58551	46.66741	-628.74615	771.56073	47.50541	-633.74701	-706.77362	-18.68111	504.77609	735.51569	-20.88196	514.07806	-11.69283	1361.70667	-876.12201	
5105	51.040	-799.80817	45.73822	-628.91199	770.50055	46.65048	-633.97070	-707.87927	-17.62579	504.34348	734.02075	-20.27990	513.56378	-13.30895	1360.10437	-878.61804	
5106	51.050	-800.89203	44.53716	-629.46277	769.39008	45.37201	-634.40875	-708.97864	-16.96397	504.25888	732.67340	-19.28377	513.09143	-14.27874	1358.64807	-881.10565	
5107	51.060	-801.81549	43.08073	-629.83386	768.16852	44.25136	-634.78485	-710.01379	-16.00169	504.02750	731.24609	-19.10265	512.34656	-15.33354	1357.02026	-883.92249	
5108	51.070	-803.24182	42.06141	-629.86823	767.10150	42.99470	-635.09747	-711.25348	-15.11793	503.80292	730.94653	-17.16802	512.86664	-16.29095	1355.32446	-886.93457	
5109	51.080	-804.52429	40.57325	-630.30103	765.77893	41.70204	-635.46906	-712.52771	-14.28336	503.60654	729.98724	-16.33745	512.64246	-17.50835	1353.65247	-890.46960	
